<svg width="19" height="18" viewBox="0 0 19 18" fill="none" xmlns="http://www.w3.org/2000/svg">
<path d="M16.4798 3H14.8548V4H16.3548V15H2.35483V4H3.85483V3H2.22983C2.11295 3.00195 1.9976 3.02691 1.89037 3.07345C1.78313 3.11999 1.68612 3.1872 1.60487 3.27125C1.52361 3.35529 1.45971 3.45451 1.41681 3.56325C1.37391 3.67199 1.35285 3.78812 1.35483 3.905V15.095C1.35285 15.2119 1.37391 15.328 1.41681 15.4367C1.45971 15.5455 1.52361 15.6447 1.60487 15.7288C1.68612 15.8128 1.78313 15.88 1.89037 15.9265C1.9976 15.9731 2.11295 15.998 2.22983 16H16.4798C16.5967 15.998 16.7121 15.9731 16.8193 15.9265C16.9265 15.88 17.0235 15.8128 17.1048 15.7288C17.1861 15.6447 17.25 15.5455 17.2929 15.4367C17.3358 15.328 17.3568 15.2119 17.3548 15.095V3.905C17.3568 3.78812 17.3358 3.67199 17.2929 3.56325C17.25 3.45451 17.1861 3.35529 17.1048 3.27125C17.0235 3.1872 16.9265 3.11999 16.8193 3.07345C16.7121 3.02691 16.5967 3.00195 16.4798 3V3Z" fill="#1B0052"/>
<path d="M4.35483 7H5.35483V8H4.35483V7Z" fill="#1B0052"/>
<path d="M7.35483 7H8.35483V8H7.35483V7Z" fill="#1B0052"/>
<path d="M10.3548 7H11.3548V8H10.3548V7Z" fill="#1B0052"/>
<path d="M13.3548 7H14.3548V8H13.3548V7Z" fill="#1B0052"/>
<path d="M4.35483 9.5H5.35483V10.5H4.35483V9.5Z" fill="#1B0052"/>
<path d="M7.35483 9.5H8.35483V10.5H7.35483V9.5Z" fill="#1B0052"/>
<path d="M10.3548 9.5H11.3548V10.5H10.3548V9.5Z" fill="#1B0052"/>
<path d="M13.3548 9.5H14.3548V10.5H13.3548V9.5Z" fill="#1B0052"/>
<path d="M4.35483 12H5.35483V13H4.35483V12Z" fill="#1B0052"/>
<path d="M7.35483 12H8.35483V13H7.35483V12Z" fill="#1B0052"/>
<path d="M10.3548 12H11.3548V13H10.3548V12Z" fill="#1B0052"/>
<path d="M13.3548 12H14.3548V13H13.3548V12Z" fill="#1B0052"/>
<path d="M5.35483 5C5.48744 5 5.61461 4.94732 5.70838 4.85355C5.80215 4.75979 5.85483 4.63261 5.85483 4.5V1.5C5.85483 1.36739 5.80215 1.24021 5.70838 1.14645C5.61461 1.05268 5.48744 1 5.35483 1C5.22222 1 5.09504 1.05268 5.00127 1.14645C4.90751 1.24021 4.85483 1.36739 4.85483 1.5V4.5C4.85483 4.63261 4.90751 4.75979 5.00127 4.85355C5.09504 4.94732 5.22222 5 5.35483 5Z" fill="#1B0052"/>
<path d="M13.3548 5C13.4874 5 13.6146 4.94732 13.7084 4.85355C13.8022 4.75979 13.8548 4.63261 13.8548 4.5V1.5C13.8548 1.36739 13.8022 1.24021 13.7084 1.14645C13.6146 1.05268 13.4874 1 13.3548 1C13.2222 1 13.095 1.05268 13.0013 1.14645C12.9075 1.24021 12.8548 1.36739 12.8548 1.5V4.5C12.8548 4.63261 12.9075 4.75979 13.0013 4.85355C13.095 4.94732 13.2222 5 13.3548 5Z" fill="#1B0052"/>
<path d="M6.85483 3H11.8548V4H6.85483V3Z" fill="#1B0052"/>
</svg>
